<svg width="48" height="48" xmlns="http://www.w3.org/2000/svg">

 <g>
  <title>background</title>
  <rect fill="none" id="canvas_background" height="402" width="582" y="-1" x="-1"/>
 </g>
 <g>
  <title>Layer 1</title>
  <path id="svg_1" fill="#ffffff" d="m47.641,31.641l0.008,-0.002l-3.28,-13.819c-0.057,-0.307 -0.129,-0.606 -0.213,-0.901l-0.03,-0.122l0,0c-1.262,-4.25 -5.189,-7.354 -9.849,-7.354c-2.101,0 -4.053,0.633 -5.68,1.714l-9.197,0c-1.626,-1.081 -3.578,-1.714 -5.676,-1.714c-5.12,0 -9.354,3.75 -10.136,8.647l-0.008,0l-3.356,13.974c-0.042,0.16 -0.086,0.318 -0.114,0.48l-0.031,0.129l0.016,0.016c-0.035,0.242 -0.074,0.48 -0.074,0.73c0,2.84 2.3,5.139 5.138,5.139c1.291,0 2.456,-0.49 3.353,-1.279l0.001,0.004l9.047,-7.43l12.888,0l8.791,7.164c0.254,0.258 0.539,0.49 0.846,0.691l0.155,0.125l0,-0.031c0.762,0.463 1.638,0.756 2.597,0.756c2.84,0 5.142,-2.299 5.142,-5.139c0,-0.628 -0.129,-1.222 -0.338,-1.778zm-12.871,-18.499c1.263,0 2.282,1.023 2.282,2.284c0,1.265 -1.02,2.286 -2.282,2.286c-1.266,0 -2.286,-1.021 -2.286,-2.286c-0.001,-1.26 1.02,-2.284 2.286,-2.284zm-14.605,6.786c0,1.263 -1.021,2.286 -2.284,2.286l-2.287,0l0,2.284c0,1.261 -1.021,2.285 -2.284,2.285c-1.264,0 -2.287,-1.023 -2.287,-2.285l0,-2.284l-2.285,0c-1.264,0 -2.286,-1.023 -2.286,-2.286l0,0c0,-1.263 1.022,-2.286 2.286,-2.286l2.284,0l0,-2.284c0,-1.264 1.022,-2.286 2.287,-2.286c1.263,0 2.284,1.022 2.284,2.286l0,2.284l2.287,0c1.263,0 2.285,1.024 2.285,2.286l0,0zm9.935,2.355c-1.263,0 -2.282,-1.023 -2.282,-2.286s1.02,-2.286 2.282,-2.286c1.266,0 2.285,1.023 2.285,2.286s-1.02,2.286 -2.285,2.286zm4.67,4.571c-1.266,0 -2.286,-1.023 -2.286,-2.287c0,-1.261 1.021,-2.284 2.286,-2.284c1.263,0 2.282,1.023 2.282,2.284c0,1.263 -1.02,2.287 -2.282,2.287zm4.568,-4.571c-1.263,0 -2.286,-1.023 -2.286,-2.286s1.023,-2.286 2.286,-2.286c1.267,0 2.286,1.023 2.286,2.286s-1.02,2.286 -2.286,2.286z"/>
 </g>
</svg>